<?xml version="1.0" encoding="UTF-8" standalone="no"?>
<!-- Created with Inkscape (http://www.inkscape.org/) -->

<svg
   xmlns:dc="http://purl.org/dc/elements/1.1/"
   xmlns:cc="http://creativecommons.org/ns#"
   xmlns:rdf="http://www.w3.org/1999/02/22-rdf-syntax-ns#"
   xmlns:svg="http://www.w3.org/2000/svg"
   xmlns="http://www.w3.org/2000/svg"
   xmlns:xlink="http://www.w3.org/1999/xlink"
   xmlns:sodipodi="http://sodipodi.sourceforge.net/DTD/sodipodi-0.dtd"
   xmlns:inkscape="http://www.inkscape.org/namespaces/inkscape"
   width="210mm"
   height="297mm"
   viewBox="0 0 744.09448819 1052.3622047"
   id="svg2"
   version="1.1"
   inkscape:version="0.48.4 r9939"
   inkscape:export-filename="/home/pavel/Загрузки/GameDev/GameDevIcons/my_icons/earth.png"
   inkscape:export-xdpi="202.04988"
   inkscape:export-ydpi="202.04988"
   sodipodi:docname="necrotic.svg">
  <defs
     id="defs4">
    <linearGradient
       id="linearGradient4174"
       inkscape:collect="always">
      <stop
         id="stop4176"
         offset="0"
         style="stop-color:#452a03;stop-opacity:1" />
      <stop
         id="stop4178"
         offset="1"
         style="stop-color:#7fee42;stop-opacity:1" />
    </linearGradient>
    <linearGradient
       inkscape:collect="always"
       id="linearGradient4168">
      <stop
         style="stop-color:#543100;stop-opacity:1"
         offset="0"
         id="stop4170" />
      <stop
         style="stop-color:#3a7e16;stop-opacity:1"
         offset="1"
         id="stop4172" />
    </linearGradient>
    <linearGradient
       id="linearGradient4162"
       inkscape:collect="always">
      <stop
         id="stop4164"
         offset="0"
         style="stop-color:#452a03;stop-opacity:1" />
      <stop
         id="stop4166"
         offset="1"
         style="stop-color:#7fee42;stop-opacity:1" />
    </linearGradient>
    <linearGradient
       inkscape:collect="always"
       id="linearGradient4147">
      <stop
         style="stop-color:#000000;stop-opacity:1;"
         offset="0"
         id="stop4149" />
      <stop
         style="stop-color:#000000;stop-opacity:0;"
         offset="1"
         id="stop4152" />
    </linearGradient>
    <linearGradient
       id="linearGradient4133"
       inkscape:collect="always">
      <stop
         id="stop4135"
         offset="0"
         style="stop-color:#3d9d40;stop-opacity:1" />
      <stop
         id="stop4137"
         offset="1"
         style="stop-color:#745600;stop-opacity:1" />
    </linearGradient>
    <linearGradient
       id="linearGradient3894"
       inkscape:collect="always">
      <stop
         id="stop3896"
         offset="0"
         style="stop-color:#000000;stop-opacity:1" />
      <stop
         id="stop3898"
         offset="1"
         style="stop-color:#d2b378;stop-opacity:1" />
    </linearGradient>
    <linearGradient
       id="linearGradient4249"
       inkscape:collect="always">
      <stop
         id="stop4251"
         offset="0"
         style="stop-color:#39c040;stop-opacity:1" />
      <stop
         id="stop4253"
         offset="1"
         style="stop-color:#000000;stop-opacity:1" />
    </linearGradient>
    <linearGradient
       inkscape:collect="always"
       id="linearGradient4149">
      <stop
         style="stop-color:#39c040;stop-opacity:1"
         offset="0"
         id="stop4151" />
      <stop
         style="stop-color:#000000;stop-opacity:1"
         offset="1"
         id="stop4153" />
    </linearGradient>
    <inkscape:path-effect
       effect="spiro"
       id="path-effect4143"
       is_visible="true" />
    <inkscape:path-effect
       effect="spiro"
       id="path-effect4139"
       is_visible="true" />
    <inkscape:path-effect
       effect="spiro"
       id="path-effect4135"
       is_visible="true" />
    <inkscape:path-effect
       effect="spiro"
       id="path-effect4131"
       is_visible="true" />
    <inkscape:path-effect
       effect="spiro"
       id="path-effect4119"
       is_visible="true" />
    <linearGradient
       inkscape:collect="always"
       id="linearGradient4109">
      <stop
         style="stop-color:#53b674;stop-opacity:1"
         offset="0"
         id="stop4111" />
      <stop
         style="stop-color:#d2b378;stop-opacity:1"
         offset="1"
         id="stop4113" />
    </linearGradient>
    <inkscape:path-effect
       effect="spiro"
       id="path-effect4095"
       is_visible="true" />
    <inkscape:path-effect
       effect="spiro"
       id="path-effect4087"
       is_visible="true" />
    <inkscape:path-effect
       effect="spiro"
       id="path-effect4083"
       is_visible="true" />
    <inkscape:path-effect
       effect="spiro"
       id="path-effect4037"
       is_visible="true" />
    <inkscape:path-effect
       effect="spiro"
       id="path-effect4029"
       is_visible="true" />
    <linearGradient
       inkscape:collect="always"
       id="linearGradient3968">
      <stop
         style="stop-color:#212c12;stop-opacity:1"
         offset="0"
         id="stop3970" />
      <stop
         style="stop-color:#988844;stop-opacity:1"
         offset="1"
         id="stop3972" />
    </linearGradient>
    <linearGradient
       inkscape:collect="always"
       id="linearGradient3962">
      <stop
         style="stop-color:#092306;stop-opacity:1"
         offset="0"
         id="stop3964" />
      <stop
         style="stop-color:#b38a18;stop-opacity:1"
         offset="1"
         id="stop3966" />
    </linearGradient>
    <linearGradient
       inkscape:collect="always"
       id="linearGradient3928">
      <stop
         style="stop-color:#f7ff00;stop-opacity:1"
         offset="0"
         id="stop3930" />
      <stop
         style="stop-color:#ffffff;stop-opacity:1"
         offset="1"
         id="stop3932" />
    </linearGradient>
    <inkscape:path-effect
       effect="spiro"
       id="path-effect4525"
       is_visible="true" />
    <linearGradient
       id="linearGradient4498"
       inkscape:collect="always">
      <stop
         id="stop4500"
         offset="0"
         style="stop-color:#252f18;stop-opacity:1" />
      <stop
         id="stop4502"
         offset="1"
         style="stop-color:#8f6c04;stop-opacity:1" />
    </linearGradient>
    <inkscape:path-effect
       effect="spiro"
       id="path-effect4488"
       is_visible="true" />
    <inkscape:path-effect
       effect="spiro"
       id="path-effect4470"
       is_visible="true" />
    <inkscape:path-effect
       effect="spiro"
       id="path-effect4233"
       is_visible="true" />
    <inkscape:path-effect
       effect="spiro"
       id="path-effect4149"
       is_visible="true" />
    <linearGradient
       inkscape:collect="always"
       xlink:href="#linearGradient3962"
       id="linearGradient4165"
       x1="388.82144"
       y1="462.07651"
       x2="282"
       y2="371.57648"
       gradientUnits="userSpaceOnUse" />
    <linearGradient
       inkscape:collect="always"
       xlink:href="#linearGradient3968"
       id="linearGradient4609"
       x1="311.0849"
       y1="408.69797"
       x2="381.5"
       y2="461.11218"
       gradientUnits="userSpaceOnUse" />
    <linearGradient
       inkscape:collect="always"
       xlink:href="#linearGradient4498"
       id="linearGradient4611"
       x1="388.20163"
       y1="402.53107"
       x2="319.96582"
       y2="455.3873"
       gradientUnits="userSpaceOnUse" />
    <radialGradient
       inkscape:collect="always"
       xlink:href="#linearGradient3928"
       id="radialGradient3934"
       cx="346.42774"
       cy="427.15648"
       fx="346.42774"
       fy="427.15648"
       r="27.396491"
       gradientTransform="matrix(1,0,0,0.99551778,0,1.9146096)"
       gradientUnits="userSpaceOnUse" />
    <inkscape:path-effect
       effect="spiro"
       id="path-effect4037-9"
       is_visible="true" />
    <inkscape:path-effect
       effect="spiro"
       id="path-effect4037-92"
       is_visible="true" />
    <linearGradient
       inkscape:collect="always"
       xlink:href="#linearGradient4109"
       id="linearGradient4115"
       x1="157.625"
       y1="403.73718"
       x2="173"
       y2="445.11218"
       gradientUnits="userSpaceOnUse" />
    <radialGradient
       inkscape:collect="always"
       xlink:href="#linearGradient4149"
       id="radialGradient4157"
       cx="179.25156"
       cy="426.04236"
       fx="179.25156"
       fy="426.04236"
       r="4.7929282"
       gradientTransform="matrix(0.42369234,0.05331866,-0.059012,0.46893399,128.44566,216.69916)"
       gradientUnits="userSpaceOnUse" />
    <radialGradient
       inkscape:collect="always"
       xlink:href="#linearGradient4149-1"
       id="radialGradient4157-9"
       cx="179.25156"
       cy="426.04236"
       fx="179.25156"
       fy="426.04236"
       r="4.7929282"
       gradientTransform="matrix(0.42623691,0.02608009,-0.05901188,0.9644537,127.98949,10.469334)"
       gradientUnits="userSpaceOnUse" />
    <linearGradient
       inkscape:collect="always"
       id="linearGradient4149-1">
      <stop
         style="stop-color:#ffffff;stop-opacity:1"
         offset="0"
         id="stop4151-8" />
      <stop
         style="stop-color:#000000;stop-opacity:1"
         offset="1"
         id="stop4153-0" />
    </linearGradient>
    <inkscape:path-effect
       effect="spiro"
       id="path-effect4037-92-4"
       is_visible="true" />
    <radialGradient
       inkscape:collect="always"
       xlink:href="#linearGradient4149-0"
       id="radialGradient4157-8"
       cx="179.25156"
       cy="426.04236"
       fx="179.25156"
       fy="426.04236"
       r="4.7929282"
       gradientTransform="matrix(0.42369234,0.05331866,-0.059012,0.46893399,128.44566,216.69916)"
       gradientUnits="userSpaceOnUse" />
    <linearGradient
       inkscape:collect="always"
       id="linearGradient4149-0">
      <stop
         style="stop-color:#ffffff;stop-opacity:1"
         offset="0"
         id="stop4151-7" />
      <stop
         style="stop-color:#000000;stop-opacity:1"
         offset="1"
         id="stop4153-7" />
    </linearGradient>
    <inkscape:path-effect
       effect="spiro"
       id="path-effect4037-92-3"
       is_visible="true" />
    <radialGradient
       r="4.7929282"
       fy="426.04236"
       fx="179.25156"
       cy="426.04236"
       cx="179.25156"
       gradientTransform="matrix(-0.42369234,0.05331866,0.059012,0.46893399,216.8059,216.64399)"
       gradientUnits="userSpaceOnUse"
       id="radialGradient4214"
       xlink:href="#linearGradient4249"
       inkscape:collect="always" />
    <linearGradient
       inkscape:collect="always"
       xlink:href="#linearGradient3894"
       id="linearGradient4277"
       gradientUnits="userSpaceOnUse"
       x1="161.63116"
       y1="407.94299"
       x2="173"
       y2="445.11218" />
    <linearGradient
       inkscape:collect="always"
       xlink:href="#linearGradient4174"
       id="linearGradient3355"
       gradientUnits="userSpaceOnUse"
       x1="311.0849"
       y1="408.69797"
       x2="381.5"
       y2="461.11218"
       gradientTransform="translate(12.75,-5.0000001)" />
    <linearGradient
       inkscape:collect="always"
       xlink:href="#linearGradient4168"
       id="linearGradient3358"
       gradientUnits="userSpaceOnUse"
       x1="388.20163"
       y1="402.53107"
       x2="319.96582"
       y2="455.3873"
       gradientTransform="translate(12.75,-5.0000001)" />
    <linearGradient
       inkscape:collect="always"
       xlink:href="#linearGradient4162"
       id="linearGradient3361"
       gradientUnits="userSpaceOnUse"
       x1="390.23566"
       y1="460.4855"
       x2="282"
       y2="371.57648"
       gradientTransform="translate(12.75,-5.0000001)" />
    <linearGradient
       inkscape:collect="always"
       xlink:href="#linearGradient4133"
       id="linearGradient3363"
       x1="581.25128"
       y1="85.375542"
       x2="692.21204"
       y2="310.26804"
       gradientUnits="userSpaceOnUse" />
    <linearGradient
       inkscape:collect="always"
       xlink:href="#linearGradient4147"
       id="linearGradient4154"
       x1="512"
       y1="438.6"
       x2="532.1"
       y2="438.6"
       gradientUnits="userSpaceOnUse" />
  </defs>
  <sodipodi:namedview
     id="base"
     pagecolor="#ffffff"
     bordercolor="#666666"
     borderopacity="1.0"
     inkscape:pageopacity="0.0"
     inkscape:pageshadow="2"
     inkscape:zoom="5.6568543"
     inkscape:cx="341.98476"
     inkscape:cy="625.4295"
     inkscape:document-units="px"
     inkscape:current-layer="layer1"
     showgrid="false"
     inkscape:window-width="1855"
     inkscape:window-height="1056"
     inkscape:window-x="65"
     inkscape:window-y="24"
     inkscape:window-maximized="1" />
  <metadata
     id="metadata7">
    <rdf:RDF>
      <cc:Work
         rdf:about="">
        <dc:format>image/svg+xml</dc:format>
        <dc:type
           rdf:resource="http://purl.org/dc/dcmitype/StillImage" />
        <dc:title></dc:title>
      </cc:Work>
    </rdf:RDF>
  </metadata>
  <g
     inkscape:label="Layer 1"
     inkscape:groupmode="layer"
     id="layer1">
    <path
       style="fill:#000000;fill-opacity:1;fill-rule:nonzero;stroke:#ffffff;stroke-width:0.53033006;stroke-miterlimit:4;stroke-dasharray:none;stroke-opacity:1"
       d=""
       id="path4272"
       inkscape:connector-curvature="0" />
    <path
       style="fill:#000000;fill-opacity:1;fill-rule:nonzero;stroke:#ffffff;stroke-width:0.53033006;stroke-miterlimit:4;stroke-dasharray:none;stroke-opacity:1"
       d=""
       id="path4274"
       inkscape:connector-curvature="0" />
    <path
       style="fill:#000000;fill-opacity:1;fill-rule:nonzero;stroke:#ffffff;stroke-width:0.53033006;stroke-miterlimit:4;stroke-dasharray:none;stroke-opacity:1"
       d=""
       id="path4276"
       inkscape:connector-curvature="0" />
    <path
       style="fill:#000000;fill-opacity:1;fill-rule:nonzero;stroke:#ffffff;stroke-width:0.53033006;stroke-miterlimit:4;stroke-dasharray:none;stroke-opacity:1"
       d=""
       id="path4278"
       inkscape:connector-curvature="0" />
    <path
       style="fill:#000000;fill-opacity:1;fill-rule:nonzero;stroke:#000000;stroke-width:0.1875;stroke-miterlimit:4;stroke-dasharray:none;stroke-opacity:1"
       d=""
       id="path4290"
       inkscape:connector-curvature="0" />
    <path
       style="fill:url(#linearGradient3361);fill-opacity:1;fill-rule:nonzero;stroke:#000000;stroke-width:6;stroke-miterlimit:4;stroke-opacity:1;stroke-dasharray:none"
       inkscape:transform-center-x="-15.116411"
       inkscape:transform-center-y="1.4552298"
       d="m 299.68471,457.60581 -0.82031,-52.76993 18.43205,-18.99297 54.96509,-15.7235 26.44867,10.59018 21.64895,27.48347 -19.84152,47.79844 -37.92348,17.64892 -37.9889,4.22307 z"
       id="path3336"
       inkscape:connector-curvature="0"
       sodipodi:nodetypes="cccccccccc"
       inkscape:export-xdpi="202"
       inkscape:export-ydpi="202" />
    <path
       style="fill:url(#linearGradient3358);fill-opacity:1;fill-rule:evenodd;stroke:#000000;stroke-width:2;stroke-linecap:butt;stroke-linejoin:miter;stroke-miterlimit:4;stroke-opacity:1;stroke-dasharray:none"
       d="m 416.32143,408.07649 -11.42857,2.14286 -17.14286,-19.28572 -12.14286,-5 -2.85714,-14.28571 -2.85714,15 -40.71429,12.85714 -11.42857,-12.14286 6.42857,12.85715 -6.42857,9.28571 -6.42857,0 5.71428,2.85714 -2.85714,36.42858 16.42857,13.57142 27.14286,-2.85714 32.85714,-15 14.28572,-30 z"
       id="path4139"
       inkscape:connector-curvature="0" />
    <path
       style="fill:url(#linearGradient3355);fill-opacity:1;fill-rule:evenodd;stroke:#000000;stroke-width:2;stroke-linecap:butt;stroke-linejoin:miter;stroke-miterlimit:4;stroke-opacity:1;stroke-dasharray:none"
       d="m 319.89286,411.64792 7.14285,-8.57143 46.42858,-14.28571 11.42857,4.28571 17.14285,18.57143 -13.57142,29.28571 -30,12.85715 -25.71429,4.28571 -15,-10.71429 z"
       id="path4143"
       inkscape:connector-curvature="0" />
    <g
       id="g3196"
       transform="matrix(0.57317712,0,0,0.53047606,161.22694,240.65336)">
      <g
         id="g3299"
         transform="matrix(0.15287257,0,0,0.15114176,303.37485,304.69089)">
        <path
           style="fill:#5c3a07;fill-opacity:1;stroke:#000000;stroke-width:1"
           inkscape:connector-curvature="0"
           d="m 385.7,438.7 c 1.5,4.3 -13.2,-4.9 -13.2,-4.9 l -18.8,-12.4 -13.1,-17.3 v -9.9 l 4.8,-17.8 12.7,-17.6 c 0,0 4,31.3 6,35.4 2,4.2 5.9,9.9 7.3,9.6 1.4,-0.2 7.2,12.6 9.4,16.6 2.1,4.2 3.4,14 4.9,18.3 z"
           id="path3080" />
        <g
           transform="translate(-161,-36.000001)"
           id="g3257">
          <path
             id="path3072"
             d="m 689.5,430.1 c 0,0 0,0 0.1,0.1 l -0.2,0.1 -39.7,19.3 c 0.1,-0.6 3.6,-25.1 5.4,-27.8 1.8,-2.7 -8.3,-12.4 -9,-14 -0.7,-1.6 10.2,-17.3 9.1,-18.9 -1.1,-1.6 9.2,-12.4 9.2,-12.4 l -8.8,-22.1 V 337 l -0.1,-0.2 95.6,-33.5 -31.7,34.5 -6.7,26.4 10.5,14 -10.5,21.6 -23.2,30.3 z"
             inkscape:connector-curvature="0"
             style="fill:#794900;fill-opacity:1;stroke:#000000;stroke-width:3.38831681;stroke-miterlimit:4;stroke-dasharray:none" />
          <path
             id="path3078"
             d="m 571.5,361 v -0.5 l 0.7,-0.1 -8,-25.3 88.3,2.7 2.9,-1 0.1,0.2 v 17.5 l 8.8,22.1 c 0,0 -10.2,10.8 -9.2,12.4 1.1,1.6 -9.8,17.3 -9.1,18.9 0.7,1.6 10.8,11.3 9,14 -1.8,2.7 -5.3,27.1 -5.4,27.8 l 0,0 0,0 -77.9,-9.6 0.2,-9.3 8,-31 -8.5,-25.3 0.1,-13.5 0,0 z"
             inkscape:connector-curvature="0"
             style="fill:#5c3a07;fill-opacity:1;stroke:#000000;stroke-width:3.38831681;stroke-miterlimit:4;stroke-dasharray:none" />
          <path
             id="path3082"
             d="m 437.2,424 0,0 9.3,-27 v -23 l 0.2,-0.9 0.9,0.2 123.8,-12.9 v 0.5 13.4 l 8.5,25.3 -8,31 -0.2,9.3 -0.2,9.3 v 35 0.1 l -123.8,12.9 0,0 7.2,-19.4 -7.7,-27 -10,-26.8 z m 96.2,45.8 c 0,0 14.7,9.2 13.2,4.9 -1.5,-4.3 -2.8,-14.1 -5,-18.1 -2.2,-4 -7.9,-16.8 -9.4,-16.6 -1.5,0.2 -5.3,-5.5 -7.3,-9.6 -2,-4.2 -6,-35.4 -6,-35.4 l -12.7,17.6 -4.8,17.8 v 9.9 l 13.1,17.3 18.9,12.2 z"
             inkscape:connector-curvature="0"
             style="fill:#794900;fill-opacity:1;stroke:#000000;stroke-width:3.38831681;stroke-miterlimit:4;stroke-dasharray:none" />
          <path
             id="path3088"
             d="m 414.8,426.9 c 5.4,-1.6 19.8,-2.7 22.3,-2.9 l 10,26.9 7.7,27 -7.2,19.4 -138.9,-35.6 -0.1,-25.9 6.6,-26.4 19.5,-3.2 c 0,0 0.6,0.5 1.4,1.3 3.2,2.8 10.6,9.3 12.3,10.6 2.2,1.6 21.7,12.6 23.9,12.3 2.2,-0.4 18.1,0.2 20.3,0.4 2.2,0.3 18.1,-0.8 20.3,-3 0.3,-0.3 1,-0.6 1.9,-0.9 z"
             inkscape:connector-curvature="0"
             style="fill:#794900;fill-opacity:1;stroke:#000000;stroke-width:3.38831681;stroke-miterlimit:4;stroke-dasharray:none" />
          <path
             id="path3090"
             d="m 391.2,422.7 23.6,4.3 c -0.9,0.3 -1.6,0.6 -1.9,0.8 -2.2,2.2 -18.1,3.2 -20.3,3 -2.2,-0.3 -18.1,-0.8 -20.3,-0.4 -2.2,0.4 -21.7,-10.6 -23.9,-12.3 -1.7,-1.3 -9.1,-7.8 -12.3,-10.6 h 18.1 c 0,0 10.1,12.7 14.5,11.1 4.4,-1.6 22.5,4.1 22.5,4.1 z"
             inkscape:connector-curvature="0"
             style="fill:#5c3a07;fill-opacity:1;stroke:#000000" />
          <path
             id="path3092"
             d="m 308.7,337.8 138.1,35.3 -0.2,0.9 v 23.1 l -9.4,26.9 0,0 c -2.6,0.2 -16.9,1.3 -22.3,2.9 l -23.6,-4.3 c 0,0 -18.1,-5.7 -22.4,-4.1 -4.4,1.6 -14.5,-11.1 -14.5,-11.1 h -18.1 c -0.9,-0.8 -1.4,-1.3 -1.4,-1.3 l -19.5,3.2 -6.7,-25.3 -7.7,-26.4 7.6,-19.9 0.2,-0.2 -0.1,0.3 z"
             inkscape:connector-curvature="0"
             style="fill:#794900;fill-opacity:1;stroke:#000000;stroke-width:3.38831681;stroke-miterlimit:4;stroke-dasharray:none" />
          <polygon
             id="polygon3094"
             points="308.5,384.1 315.2,409.5 308.6,435.9 308.7,461.8 267.8,419.8 267.8,419.7 263.1,399.8 272.5,377.1 267.7,345.9 259.4,322.7 267.6,295.8 267.7,295.8 308.5,337.6 308.3,337.8 300.7,357.7 "
             style="fill:#794900;fill-opacity:1;stroke:#000000;stroke-width:3.38831681;stroke-miterlimit:4;stroke-dasharray:none" />
          <polygon
             id="polygon3096"
             points="201.9,321.1 205.7,310.3 209,274.3 209.1,273.9 209.3,274 236.4,297.8 235.7,298.5 239.4,316.3 236.4,336.2 228.9,357.7 236.6,374.4 234.5,401.9 236.6,422 209.3,397.9 209.3,397.9 213.1,382 203.5,366.3 201.9,350.2 209.1,337.8 "
             style="fill:#794900;fill-opacity:1;stroke:#000000;stroke-width:3.38831681;stroke-miterlimit:4;stroke-dasharray:none" />
          <polygon
             id="polygon3098"
             points="239.4,316.3 235.7,298.5 236.4,297.8 237,298.4 267.6,295.8 259.4,322.7 267.7,345.9 272.5,377.1 263.1,399.8 267.8,419.7 267.8,419.8 267.7,419.8 237,422.4 236.6,422 234.5,401.9 236.6,374.4 228.9,357.7 236.4,336.2 "
             style="fill:#5c3a07;fill-opacity:1;stroke:#000000;stroke-width:3.38831681;stroke-miterlimit:4;stroke-dasharray:none" />
          <polygon
             id="polygon3108"
             points="156.7,283.3 162.8,266.1 163.1,265.9 163.2,266.1 209.1,273.9 209,274.3 205.7,310.3 201.9,321.1 209.1,337.8 201.9,350.2 203.5,366.3 213.1,382 209.3,397.9 163.2,390.1 162.8,389.3 163.9,349.6 172.6,328.1 162.8,303.3 "
             style="fill:#683e00;fill-opacity:1;stroke:#000000;stroke-width:3.38831681;stroke-miterlimit:4;stroke-dasharray:none" />
          <polygon
             id="polygon3110"
             points="163.1,265.9 162.8,266.1 156.7,283.3 162.8,303.3 172.6,328.1 163.9,349.6 162.8,389.3 150.9,364.2 141.5,332.9 141.5,315.7 148.5,292 149.6,267.3 150.9,240.2 "
             style="fill:#794900;fill-opacity:1;stroke:#000000;stroke-width:3.38831681;stroke-miterlimit:4;stroke-dasharray:none" />
          <polygon
             id="polygon3112"
             points="149.6,267.3 141.1,248 131.5,125.4 132,125.4 182.7,179.8 150.9,240.2 "
             style="fill:#794900;fill-opacity:1;stroke:#000000;stroke-width:3.38831681;stroke-miterlimit:4;stroke-dasharray:none" />
          <path
             id="path3114"
             d="m 267.6,295.8 -30.6,2.6 -0.7,-0.6 -27,-23.8 h -0.2 l -45.9,-7.8 -0.1,-0.1 -12.2,-25.7 31.9,-60.4 -50.8,-54.6 8.7,-20 48.5,-17.3 8.7,-11.9 42,-6.7 5.8,-13.2 28.2,-5.4 278.1,46.9 c 0,0 91.2,-0.7 95.6,2.1 7.2,4.7 47,38.8 50.7,41 3.6,2.2 6.5,66.3 6.5,66.3 l 18.5,55 27.9,41 -95.6,33.5 -2.9,1 -88.3,-2.7 8,25.3 -0.7,0.1 -123.8,12.9 -0.9,-0.2 -138.1,-35.3 -0.2,-0.2 -40.8,-41.8 h -0.3 z"
             inkscape:connector-curvature="0"
             style="fill:url(#linearGradient3363);fill-opacity:1;stroke:#000000;stroke-width:4.58138611;stroke-miterlimit:4;stroke-dasharray:none" />
          <polygon
             id="polygon3116"
             points="213.5,169.7 213.6,169.8 223.6,183.6 223.5,183.6 239.4,190.6 223.4,183.8 223.4,183.8 223.4,183.8 213.2,170.2 213.4,170.2 182.9,180.3 182.6,179.4 213.3,169.8 "
             style="stroke:#000000;stroke-opacity:1" />
          <polygon
             id="polygon3118"
             points="239.3,70.5 240,69.7 254.2,82.3 254,82.3 272,82.6 254,83 253.9,83 253.8,82.8 "
             style="stroke:#000000;stroke-opacity:1" />
          <polygon
             id="polygon3120"
             points="189.7,88 195,106 188.8,88.3 "
             style="stroke:#000000;stroke-opacity:1" />
          <polygon
             id="polygon3122"
             points="209.8,274.4 209.2,273.6 218.3,265.9 218.4,265.8 218.5,265.8 229,266 218.5,266.3 218.7,266.3 "
             style="stroke:#000000;stroke-opacity:1" />
          <polygon
             id="polygon3124"
             points="267.4,295.3 285.1,287.4 267.8,296.2 "
             style="stroke:#000000;stroke-opacity:1" />
          <polygon
             id="polygon3126"
             points="546.9,315.3 547,314.8 564.6,334.7 563.9,335.4 546.5,315.2 546.2,314.9 546.6,314.7 555.4,310.8 555.3,311.1 546.6,295.8 546.7,295.9 524.1,287.4 546.8,295.6 546.9,295.6 546.9,295.6 555.7,310.9 555.9,311.1 555.6,311.2 "
             style="stroke:#000000;stroke-opacity:1" />
          <polygon
             id="polygon3128"
             points="704.4,207.4 704.9,208.2 689.4,217.8 689.4,218 689.3,218 679,217.7 689.3,217.4 689.2,217.4 "
             style="stroke-width:1.1930693;stroke-miterlimit:4;stroke-dasharray:none;stroke:#000000;stroke-opacity:1" />
          <path
             id="path3130"
             d="m 150.5,212 c -0.6,-3.5 -1,-7 -1.5,-10.5 -0.5,-3.5 -0.8,-7 -1.2,-10.5 -0.3,-3.5 -0.7,-7 -1,-10.5 l -0.4,-5.3 c -0.1,-1.8 -0.2,-3.5 -0.3,-5.3 0.3,1.7 0.5,3.5 0.8,5.2 l 0.7,5.2 c 0.4,3.5 0.8,7 1.2,10.5 0.3,3.5 0.7,7 1,10.5 0.3,3.7 0.5,7.2 0.7,10.7 z"
             inkscape:connector-curvature="0"
             style="stroke:#000000;stroke-opacity:1" />
          <path
             id="path3132"
             d="m 156.5,191 c -0.4,-3.5 -0.5,-7 -0.5,-10.5 0,-3.5 0.1,-7 0.5,-10.5 0.4,3.5 0.5,7 0.5,10.5 0,3.5 -0.1,7 -0.5,10.5 z"
             inkscape:connector-curvature="0"
             style="stroke:#000000;stroke-opacity:1" />
          <path
             id="path3134"
             d="m 179.2,307 c -0.9,-2.2 -1.7,-4.4 -2.4,-6.6 -0.8,-2.2 -1.5,-4.5 -2.2,-6.7 -0.7,-2.3 -1.3,-4.5 -1.9,-6.8 l -0.9,-3.4 c -0.3,-1.1 -0.6,-2.3 -0.8,-3.4 0.5,1.1 0.8,2.2 1.3,3.3 l 1.2,3.3 c 0.8,2.2 1.5,4.5 2.2,6.7 0.7,2.3 1.3,4.5 1.9,6.8 0.5,2.2 1.1,4.5 1.6,6.8 z"
             inkscape:connector-curvature="0"
             style="stroke:#000000;stroke-opacity:1" />
          <path
             id="path3136"
             d="m 182.7,330 c 1.5,3.3 2.6,6.6 3.7,10 1.1,3.4 2.1,6.8 2.8,10.3 -1.5,-3.3 -2.6,-6.6 -3.7,-10 -1.1,-3.4 -2.1,-6.8 -2.8,-10.3 z"
             inkscape:connector-curvature="0"
             style="stroke:#000000;stroke-opacity:1" />
          <path
             id="path3138"
             d="m 189.2,376.8 c -1.7,-1.7 -3.3,-3.4 -4.9,-5.2 -1.6,-1.8 -3.1,-3.6 -4.6,-5.4 -1.5,-1.8 -3,-3.6 -4.5,-5.5 l -2.2,-2.8 c -0.7,-1 -1.4,-1.9 -2.1,-2.9 0.8,0.8 1.6,1.7 2.5,2.6 l 2.4,2.6 c 1.6,1.8 3.1,3.6 4.6,5.4 1.5,1.8 3,3.6 4.5,5.5 1.5,1.9 3,3.7 4.3,5.7 z"
             inkscape:connector-curvature="0"
             style="stroke:#000000;stroke-opacity:1" />
          <path
             id="path3140"
             d="m 156.5,345 3.4,-8.1 c 0.5,-1.4 1.1,-2.7 1.6,-4.1 0.2,-0.7 0.5,-1.4 0.7,-2 0.2,-0.7 0.4,-1.4 0.4,-2 -0.1,-1.3 -0.7,-2.7 -1.2,-4.1 -0.5,-1.4 -1,-2.7 -1.6,-4.1 l -3.3,-8.1 c 1.4,2.5 2.8,5.2 4,7.8 0.6,1.3 1.2,2.7 1.7,4 0.3,0.7 0.5,1.4 0.7,2.1 0.2,0.7 0.4,1.4 0.5,2.2 0,0.9 -0.2,1.6 -0.4,2.3 -0.2,0.7 -0.5,1.4 -0.7,2.1 -0.5,1.4 -1.1,2.7 -1.8,4 -1.2,2.9 -2.5,5.5 -4,8 z"
             inkscape:connector-curvature="0" />
          <path
             id="path3142"
             d="m 225,376.8 c -0.7,-1.8 -1.3,-3.6 -2,-5.3 -0.7,-1.8 -1.2,-3.6 -1.8,-5.4 -0.6,-1.8 -1.2,-3.6 -1.8,-5.4 l -1.7,-5.4 -0.1,-0.2 0.1,-0.3 c 0.8,-2.6 1.7,-5.2 2.6,-7.8 l 2.7,-7.7 2.9,-7.7 c 1,-2.5 2,-5.1 3.1,-7.6 h 0.3 l -10.3,31 0,0 6.3,21.8 H 225 z"
             inkscape:connector-curvature="0"
             style="stroke:#000000;stroke-opacity:1" />
          <path
             id="path3144"
             d="m 247,381 c 0.6,-1.5 1.3,-2.9 1.9,-4.4 0.6,-1.5 1.3,-2.9 2,-4.3 0.7,-1.4 1.3,-2.9 2.1,-4.3 l 2.2,-4.2 -0.1,0.7 c -0.8,-2.2 -1.5,-4.4 -2.2,-6.6 l -2.1,-6.6 -2,-6.7 c -0.6,-2.2 -1.2,-4.5 -1.8,-6.8 h 0.1 l 8.9,26.4 0,0 0,0 -9,16.8 0,0 z"
             inkscape:connector-curvature="0"
             style="stroke:#000000;stroke-opacity:1" />
          <path
             id="path3146"
             d="m 277,417.1 3.8,-5.7 c 1.3,-1.9 2.6,-3.8 3.9,-5.7 l 3.9,-5.7 c 1.3,-1.9 2.7,-3.7 4,-5.6 l -0.1,0.9 -6,-10.7 -5.8,-10.8 -0.1,-0.2 v -0.2 c 0,-2.4 0,-4.7 0.1,-7.1 l 0.2,-7.1 c 0,-2.4 0.1,-4.7 0.2,-7.1 l 0.3,-7.1 h 0.1 v 28.3 l 0,0 11.8,21.6 0,0 0,0 -16.3,22.2 0,0 z"
             inkscape:connector-curvature="0"
             style="stroke:#000000;stroke-opacity:1" />
          <polygon
             id="polygon3148"
             points="353.9,407.3 361.5,394.9 354.7,407.7 " />
          <polygon
             id="polygon3150"
             points="376,417.6 375.5,416.8 398,400.9 398,400.9 398.1,400.9 416.5,394.9 398.2,401.3 398.2,401.3 "
             style="stroke:#000000;stroke-opacity:1" />
          <polygon
             id="polygon3152"
             points="371.9,430.4 372.9,430.2 376.6,449.6 376.5,449.5 386,457.9 376.2,449.8 376.2,449.7 376.2,449.7 "
             style="stroke:#000000;stroke-opacity:1" />
          <polygon
             id="polygon3154"
             points="481.3,436 467,436 467,436 466.9,435.9 437.5,424.1 467.1,435.3 467,435.2 481.3,435 481.3,435 481.4,435.1 501.6,439.8 501.4,440.8 481.2,435.8 "
             style="stroke:#000000;stroke-opacity:1" />
          <polygon
             id="polygon3156"
             points="552.1,439.2 552.2,439.3 559.1,447.7 558.9,447.7 571.5,440 559.1,448 559,448 558.9,447.9 551.8,439.7 552,439.8 532,440 532,439 552,439.2 "
             style="stroke:#000000;stroke-opacity:1" />
          <polygon
             id="polygon3160"
             points="546.9,474.2 560,481 546.4,475.1 "
             style="stroke:#000000;stroke-opacity:1" />
          <path
             id="path3174"
             d="m 606.5,425 -0.3,-6 c -0.1,-2 -0.2,-4 -0.2,-6 v -0.3 l 0.2,-0.2 c 3.6,-2.4 7.2,-4.9 10.9,-7.2 l -0.4,0.7 -0.1,-11 v 0.2 c -1,-3.5 -1.8,-7 -2.7,-10.5 -0.9,-3.5 -1.8,-7 -2.6,-10.5 V 374 l 0.1,-0.2 3,-9.4 3.2,-9.4 h 0.1 l -5.5,19 0,0 5.8,21 h 0.2 l 0,0 v 11 l 0,0 H 618 l -11.1,7 v -0.1 l -0.4,12.1 0,0 z"
             inkscape:connector-curvature="0"
             style="stroke:#000000;stroke-opacity:1" />
          <path
             id="path3176"
             d="m 675,424 8.1,-11.7 8.2,-11.5 0.3,1.1 c -4.3,-2 -8.6,-4.1 -12.9,-6.2 l -0.7,-0.4 0.4,-0.8 5.1,-10.5 5.2,-10.4 0.1,0.9 -5.1,-7.3 c -1.7,-2.4 -3.4,-4.9 -5.1,-7.4 l -0.2,-0.3 0.1,-0.3 5.4,-12.1 5.5,-12 h 0.1 l -10.3,24.3 v -0.1 l 10.3,14.6 0,0 0,0 -10.3,20.9 v -0.1 L 692,401 h 0.1 l -0.1,0.1 -17,22.9 0,0 z"
             inkscape:connector-curvature="0"
             style="stroke:#000000;stroke-opacity:1" />
          <path
             id="path3182"
             d="m 512.5,419 c 0.2,1.8 0.3,3.5 0.4,5.3 0.1,1.8 0.1,3.5 0.2,5.3 0.1,1.8 0.1,3.5 0.1,5.3 l 0.1,5.3 -0.3,-0.7 c 1.1,0.8 2.2,1.6 3.3,2.4 l 3.2,2.5 3.2,2.5 c 1.1,0.8 2.1,1.7 3.2,2.5 l 0.1,0.1 0,0 c 1,1.4 2.1,2.8 3.1,4.3 1,1.5 2,2.9 3,4.4 l -0.1,-0.2 -6.6,-8.2 0,0 -13.2,-9.7 H 512 l 0,0 0.5,-21.1 0,0 z"
             inkscape:connector-curvature="0"
             style="fill:url(#linearGradient4154)" />
          <polygon
             id="polygon3184"
             points="719.5,338.2 704.7,345 719.1,337.3 "
             style="stroke:#000000;stroke-opacity:1" />
          <polygon
             id="polygon3186"
             points="713,364.5 704.7,374 712.2,363.9 "
             style="stroke:#000000;stroke-opacity:1" />
        </g>
      </g>
    </g>
  </g>
</svg>
