<?xml version="1.0" encoding="UTF-8" standalone="no"?>
<!-- Created with Inkscape (http://www.inkscape.org/) -->

<svg
   xmlns:dc="http://purl.org/dc/elements/1.1/"
   xmlns:cc="http://creativecommons.org/ns#"
   xmlns:rdf="http://www.w3.org/1999/02/22-rdf-syntax-ns#"
   xmlns:svg="http://www.w3.org/2000/svg"
   xmlns="http://www.w3.org/2000/svg"
   xmlns:xlink="http://www.w3.org/1999/xlink"
   xmlns:sodipodi="http://sodipodi.sourceforge.net/DTD/sodipodi-0.dtd"
   xmlns:inkscape="http://www.inkscape.org/namespaces/inkscape"
   width="210mm"
   height="297mm"
   viewBox="0 0 744.09448819 1052.3622047"
   id="svg2"
   version="1.1"
   inkscape:version="0.48.4 r9939"
   inkscape:export-filename="/home/pavel/Загрузки/GameDev/GameDevIcons/my_icons/earth.png"
   inkscape:export-xdpi="202.04988"
   inkscape:export-ydpi="202.04988"
   sodipodi:docname="physical.svg">
  <defs
     id="defs4">
    <linearGradient
       id="linearGradient4174"
       inkscape:collect="always">
      <stop
         id="stop4176"
         offset="0"
         style="stop-color:#000000;stop-opacity:1" />
      <stop
         id="stop4178"
         offset="1"
         style="stop-color:#ffffff;stop-opacity:1" />
    </linearGradient>
    <linearGradient
       inkscape:collect="always"
       id="linearGradient4168">
      <stop
         style="stop-color:#292929;stop-opacity:1"
         offset="0"
         id="stop4170" />
      <stop
         style="stop-color:#f9faf8;stop-opacity:1"
         offset="1"
         id="stop4172" />
    </linearGradient>
    <linearGradient
       id="linearGradient4162"
       inkscape:collect="always">
      <stop
         id="stop4164"
         offset="0"
         style="stop-color:#262626;stop-opacity:1" />
      <stop
         id="stop4166"
         offset="1"
         style="stop-color:#ffffff;stop-opacity:1" />
    </linearGradient>
    <linearGradient
       id="linearGradient3894"
       inkscape:collect="always">
      <stop
         id="stop3896"
         offset="0"
         style="stop-color:#000000;stop-opacity:1" />
      <stop
         id="stop3898"
         offset="1"
         style="stop-color:#d2b378;stop-opacity:1" />
    </linearGradient>
    <linearGradient
       id="linearGradient4249"
       inkscape:collect="always">
      <stop
         id="stop4251"
         offset="0"
         style="stop-color:#39c040;stop-opacity:1" />
      <stop
         id="stop4253"
         offset="1"
         style="stop-color:#000000;stop-opacity:1" />
    </linearGradient>
    <linearGradient
       inkscape:collect="always"
       id="linearGradient4149">
      <stop
         style="stop-color:#39c040;stop-opacity:1"
         offset="0"
         id="stop4151" />
      <stop
         style="stop-color:#000000;stop-opacity:1"
         offset="1"
         id="stop4153" />
    </linearGradient>
    <inkscape:path-effect
       effect="spiro"
       id="path-effect4143"
       is_visible="true" />
    <inkscape:path-effect
       effect="spiro"
       id="path-effect4139"
       is_visible="true" />
    <inkscape:path-effect
       effect="spiro"
       id="path-effect4135"
       is_visible="true" />
    <inkscape:path-effect
       effect="spiro"
       id="path-effect4131"
       is_visible="true" />
    <inkscape:path-effect
       effect="spiro"
       id="path-effect4119"
       is_visible="true" />
    <linearGradient
       inkscape:collect="always"
       id="linearGradient4109">
      <stop
         style="stop-color:#53b674;stop-opacity:1"
         offset="0"
         id="stop4111" />
      <stop
         style="stop-color:#d2b378;stop-opacity:1"
         offset="1"
         id="stop4113" />
    </linearGradient>
    <inkscape:path-effect
       effect="spiro"
       id="path-effect4095"
       is_visible="true" />
    <inkscape:path-effect
       effect="spiro"
       id="path-effect4087"
       is_visible="true" />
    <inkscape:path-effect
       effect="spiro"
       id="path-effect4083"
       is_visible="true" />
    <inkscape:path-effect
       effect="spiro"
       id="path-effect4037"
       is_visible="true" />
    <inkscape:path-effect
       effect="spiro"
       id="path-effect4029"
       is_visible="true" />
    <linearGradient
       inkscape:collect="always"
       id="linearGradient3968">
      <stop
         style="stop-color:#212c12;stop-opacity:1"
         offset="0"
         id="stop3970" />
      <stop
         style="stop-color:#988844;stop-opacity:1"
         offset="1"
         id="stop3972" />
    </linearGradient>
    <linearGradient
       inkscape:collect="always"
       id="linearGradient3962">
      <stop
         style="stop-color:#092306;stop-opacity:1"
         offset="0"
         id="stop3964" />
      <stop
         style="stop-color:#b38a18;stop-opacity:1"
         offset="1"
         id="stop3966" />
    </linearGradient>
    <linearGradient
       inkscape:collect="always"
       id="linearGradient3928">
      <stop
         style="stop-color:#f7ff00;stop-opacity:1"
         offset="0"
         id="stop3930" />
      <stop
         style="stop-color:#ffffff;stop-opacity:1"
         offset="1"
         id="stop3932" />
    </linearGradient>
    <inkscape:path-effect
       effect="spiro"
       id="path-effect4525"
       is_visible="true" />
    <linearGradient
       id="linearGradient4498"
       inkscape:collect="always">
      <stop
         id="stop4500"
         offset="0"
         style="stop-color:#252f18;stop-opacity:1" />
      <stop
         id="stop4502"
         offset="1"
         style="stop-color:#8f6c04;stop-opacity:1" />
    </linearGradient>
    <inkscape:path-effect
       effect="spiro"
       id="path-effect4488"
       is_visible="true" />
    <inkscape:path-effect
       effect="spiro"
       id="path-effect4470"
       is_visible="true" />
    <inkscape:path-effect
       effect="spiro"
       id="path-effect4233"
       is_visible="true" />
    <inkscape:path-effect
       effect="spiro"
       id="path-effect4149"
       is_visible="true" />
    <linearGradient
       inkscape:collect="always"
       xlink:href="#linearGradient3962"
       id="linearGradient4165"
       x1="388.82144"
       y1="462.07651"
       x2="282"
       y2="371.57648"
       gradientUnits="userSpaceOnUse" />
    <linearGradient
       inkscape:collect="always"
       xlink:href="#linearGradient3968"
       id="linearGradient4609"
       x1="311.0849"
       y1="408.69797"
       x2="381.5"
       y2="461.11218"
       gradientUnits="userSpaceOnUse" />
    <linearGradient
       inkscape:collect="always"
       xlink:href="#linearGradient4498"
       id="linearGradient4611"
       x1="388.20163"
       y1="402.53107"
       x2="319.96582"
       y2="455.3873"
       gradientUnits="userSpaceOnUse" />
    <radialGradient
       inkscape:collect="always"
       xlink:href="#linearGradient3928"
       id="radialGradient3934"
       cx="346.42774"
       cy="427.15648"
       fx="346.42774"
       fy="427.15648"
       r="27.396491"
       gradientTransform="matrix(1,0,0,0.99551778,0,1.9146096)"
       gradientUnits="userSpaceOnUse" />
    <inkscape:path-effect
       effect="spiro"
       id="path-effect4037-9"
       is_visible="true" />
    <inkscape:path-effect
       effect="spiro"
       id="path-effect4037-92"
       is_visible="true" />
    <linearGradient
       inkscape:collect="always"
       xlink:href="#linearGradient4109"
       id="linearGradient4115"
       x1="157.625"
       y1="403.73718"
       x2="173"
       y2="445.11218"
       gradientUnits="userSpaceOnUse" />
    <radialGradient
       inkscape:collect="always"
       xlink:href="#linearGradient4149"
       id="radialGradient4157"
       cx="179.25156"
       cy="426.04236"
       fx="179.25156"
       fy="426.04236"
       r="4.7929282"
       gradientTransform="matrix(0.42369234,0.05331866,-0.059012,0.46893399,128.44566,216.69916)"
       gradientUnits="userSpaceOnUse" />
    <radialGradient
       inkscape:collect="always"
       xlink:href="#linearGradient4149-1"
       id="radialGradient4157-9"
       cx="179.25156"
       cy="426.04236"
       fx="179.25156"
       fy="426.04236"
       r="4.7929282"
       gradientTransform="matrix(0.42623691,0.02608009,-0.05901188,0.9644537,127.98949,10.469334)"
       gradientUnits="userSpaceOnUse" />
    <linearGradient
       inkscape:collect="always"
       id="linearGradient4149-1">
      <stop
         style="stop-color:#ffffff;stop-opacity:1"
         offset="0"
         id="stop4151-8" />
      <stop
         style="stop-color:#000000;stop-opacity:1"
         offset="1"
         id="stop4153-0" />
    </linearGradient>
    <inkscape:path-effect
       effect="spiro"
       id="path-effect4037-92-4"
       is_visible="true" />
    <radialGradient
       inkscape:collect="always"
       xlink:href="#linearGradient4149-0"
       id="radialGradient4157-8"
       cx="179.25156"
       cy="426.04236"
       fx="179.25156"
       fy="426.04236"
       r="4.7929282"
       gradientTransform="matrix(0.42369234,0.05331866,-0.059012,0.46893399,128.44566,216.69916)"
       gradientUnits="userSpaceOnUse" />
    <linearGradient
       inkscape:collect="always"
       id="linearGradient4149-0">
      <stop
         style="stop-color:#ffffff;stop-opacity:1"
         offset="0"
         id="stop4151-7" />
      <stop
         style="stop-color:#000000;stop-opacity:1"
         offset="1"
         id="stop4153-7" />
    </linearGradient>
    <inkscape:path-effect
       effect="spiro"
       id="path-effect4037-92-3"
       is_visible="true" />
    <radialGradient
       r="4.7929282"
       fy="426.04236"
       fx="179.25156"
       cy="426.04236"
       cx="179.25156"
       gradientTransform="matrix(-0.42369234,0.05331866,0.059012,0.46893399,216.8059,216.64399)"
       gradientUnits="userSpaceOnUse"
       id="radialGradient4214"
       xlink:href="#linearGradient4249"
       inkscape:collect="always" />
    <linearGradient
       inkscape:collect="always"
       xlink:href="#linearGradient3894"
       id="linearGradient4277"
       gradientUnits="userSpaceOnUse"
       x1="161.63116"
       y1="407.94299"
       x2="173"
       y2="445.11218" />
    <linearGradient
       inkscape:collect="always"
       xlink:href="#linearGradient4174"
       id="linearGradient3355"
       gradientUnits="userSpaceOnUse"
       x1="311.0849"
       y1="408.69797"
       x2="381.5"
       y2="461.11218"
       gradientTransform="translate(12.75,-5.0000001)" />
    <linearGradient
       inkscape:collect="always"
       xlink:href="#linearGradient4168"
       id="linearGradient3358"
       gradientUnits="userSpaceOnUse"
       x1="388.20163"
       y1="402.53107"
       x2="319.96582"
       y2="455.3873"
       gradientTransform="translate(12.75,-5.0000001)" />
    <linearGradient
       inkscape:collect="always"
       xlink:href="#linearGradient4162"
       id="linearGradient3361"
       gradientUnits="userSpaceOnUse"
       x1="403.49393"
       y1="470.38501"
       x2="295.08148"
       y2="402.15884"
       gradientTransform="translate(12.75,-5.0000001)" />
    <linearGradient
       x1="676.05"
       y1="103.76"
       gradientTransform="matrix(-0.14867,0.10963,1.1408,1.1758,99.287,-73.555)"
       x2="571.42"
       gradientUnits="userSpaceOnUse"
       xlink:href="#linearGradient2180"
       y2="34.009"
       id="linearGradient3158" />
    <linearGradient
       x1="130.54"
       y1="786.66"
       gradientTransform="matrix(-0.75855,0.55933,0.22359,0.23046,99.287,-73.555)"
       x2="130.54"
       gradientUnits="userSpaceOnUse"
       xlink:href="#linearGradient2180"
       y2="822.55"
       id="linearGradient3154" />
    <linearGradient
       x1="151.1"
       y1="697.5"
       gradientTransform="matrix(-0.66924,0.49348,0.25343,0.26121,99.287,-73.555)"
       x2="177.24"
       gradientUnits="userSpaceOnUse"
       xlink:href="#linearGradient2180"
       y2="685.19"
       id="linearGradient3142" />
    <linearGradient
       x1="666.23"
       y1="107.83"
       gradientTransform="matrix(-0.14867,0.10963,1.1408,1.1758,99.287,-73.555)"
       x2="692.38"
       gradientUnits="userSpaceOnUse"
       xlink:href="#linearGradient2180"
       y2="17.733"
       id="linearGradient3139" />
    <linearGradient
       x1="423.39"
       y1="10.073"
       gradientTransform="matrix(-0.2077,0.15315,0.81659,0.84166,99.287,-73.555)"
       x2="556.42"
       gradientUnits="userSpaceOnUse"
       xlink:href="#linearGradient2199"
       y2="155.44"
       id="linearGradient3136" />
    <linearGradient
       x1="145.82"
       y1="537.14"
       gradientTransform="matrix(-0.6758,0.49832,0.25097,0.25867,99.287,-73.555)"
       x2="193.43"
       gradientUnits="userSpaceOnUse"
       xlink:href="#linearGradient2180"
       y2="541.29"
       id="linearGradient3132" />
    <linearGradient
       x1="143.8"
       y1="522"
       gradientTransform="matrix(-0.67355,0.49666,0.25181,0.25954,99.287,-73.555)"
       x2="106.52"
       gradientUnits="userSpaceOnUse"
       xlink:href="#linearGradient2180"
       y2="522.72"
       id="linearGradient3129" />
    <linearGradient
       x1="147.87"
       y1="687.36"
       gradientTransform="matrix(-0.655,0.48298,0.25894,0.26689,99.287,-73.555)"
       x2="118.72"
       gradientUnits="userSpaceOnUse"
       xlink:href="#linearGradient2180"
       y2="673.5"
       id="linearGradient3126" />
    <linearGradient
       x1="147.87"
       y1="687.36"
       gradientTransform="scale(1.4627,0.68366)"
       x2="118.72"
       gradientUnits="userSpaceOnUse"
       xlink:href="#linearGradient2180"
       y2="673.5"
       id="linearGradient1476" />
    <linearGradient
       x1="143.8"
       y1="522"
       gradientTransform="scale(1.5041,0.66483)"
       x2="106.52"
       gradientUnits="userSpaceOnUse"
       xlink:href="#linearGradient2180"
       y2="522.72"
       id="linearGradient1474" />
    <linearGradient
       x1="145.82"
       y1="537.14"
       gradientTransform="scale(1.5092,0.66262)"
       x2="193.43"
       gradientUnits="userSpaceOnUse"
       xlink:href="#linearGradient2180"
       y2="541.29"
       id="linearGradient1472" />
    <linearGradient
       x1="423.39"
       y1="10.073"
       gradientTransform="scale(0.46382,2.156)"
       x2="556.42"
       gradientUnits="userSpaceOnUse"
       xlink:href="#linearGradient2199"
       y2="155.44"
       id="linearGradient1470" />
    <linearGradient
       x1="666.23"
       y1="107.83"
       gradientTransform="scale(0.33201,3.012)"
       x2="692.38"
       gradientUnits="userSpaceOnUse"
       xlink:href="#linearGradient2180"
       y2="17.733"
       id="linearGradient1468" />
    <linearGradient
       x1="151.1"
       y1="697.5"
       gradientTransform="scale(1.4945,0.66911)"
       x2="177.24"
       gradientUnits="userSpaceOnUse"
       xlink:href="#linearGradient2180"
       y2="685.19"
       id="linearGradient1466" />
    <linearGradient
       x1="130.54"
       y1="786.66"
       gradientTransform="scale(1.694,0.59033)"
       x2="130.54"
       gradientUnits="userSpaceOnUse"
       xlink:href="#linearGradient2180"
       y2="822.55"
       id="linearGradient1464" />
    <linearGradient
       x1="676.05"
       y1="103.76"
       gradientTransform="scale(0.33201,3.012)"
       x2="571.42"
       gradientUnits="userSpaceOnUse"
       xlink:href="#linearGradient2180"
       y2="34.009"
       id="linearGradient1462" />
    <linearGradient
       id="linearGradient2180">
      <stop
         offset="0"
         stop-color="#b0b0b0"
         id="stop2181" />
      <stop
         offset="1"
         stop-color="#e8e8e9"
         id="stop2182" />
    </linearGradient>
    <linearGradient
       id="linearGradient2199">
      <stop
         offset="0"
         stop-opacity=".10112"
         stop-color="#0163ff"
         id="stop2200" />
      <stop
         offset="1"
         stop-opacity="0"
         stop-color="#fff"
         id="stop2201" />
    </linearGradient>
  </defs>
  <sodipodi:namedview
     id="base"
     pagecolor="#ffffff"
     bordercolor="#666666"
     borderopacity="1.0"
     inkscape:pageopacity="0.0"
     inkscape:pageshadow="2"
     inkscape:zoom="4"
     inkscape:cx="301.79934"
     inkscape:cy="645.24028"
     inkscape:document-units="px"
     inkscape:current-layer="layer1"
     showgrid="false"
     inkscape:window-width="1855"
     inkscape:window-height="1056"
     inkscape:window-x="65"
     inkscape:window-y="24"
     inkscape:window-maximized="1" />
  <metadata
     id="metadata7">
    <rdf:RDF>
      <cc:Work
         rdf:about="">
        <dc:format>image/svg+xml</dc:format>
        <dc:type
           rdf:resource="http://purl.org/dc/dcmitype/StillImage" />
        <dc:title />
      </cc:Work>
    </rdf:RDF>
  </metadata>
  <g
     inkscape:label="Layer 1"
     inkscape:groupmode="layer"
     id="layer1">
    <path
       style="fill:#000000;fill-opacity:1;fill-rule:nonzero;stroke:#ffffff;stroke-width:0.53033006;stroke-miterlimit:4;stroke-dasharray:none;stroke-opacity:1"
       d=""
       id="path4272"
       inkscape:connector-curvature="0" />
    <path
       style="fill:#000000;fill-opacity:1;fill-rule:nonzero;stroke:#ffffff;stroke-width:0.53033006;stroke-miterlimit:4;stroke-dasharray:none;stroke-opacity:1"
       d=""
       id="path4274"
       inkscape:connector-curvature="0" />
    <path
       style="fill:#000000;fill-opacity:1;fill-rule:nonzero;stroke:#ffffff;stroke-width:0.53033006;stroke-miterlimit:4;stroke-dasharray:none;stroke-opacity:1"
       d=""
       id="path4276"
       inkscape:connector-curvature="0" />
    <path
       style="fill:#000000;fill-opacity:1;fill-rule:nonzero;stroke:#ffffff;stroke-width:0.53033006;stroke-miterlimit:4;stroke-dasharray:none;stroke-opacity:1"
       d=""
       id="path4278"
       inkscape:connector-curvature="0" />
    <path
       style="fill:#000000;fill-opacity:1;fill-rule:nonzero;stroke:#000000;stroke-width:0.1875;stroke-miterlimit:4;stroke-dasharray:none;stroke-opacity:1"
       d=""
       id="path4290"
       inkscape:connector-curvature="0" />
    <g
       id="g3127">
      <path
         inkscape:export-ydpi="202"
         inkscape:export-xdpi="202"
         sodipodi:nodetypes="cccccccccc"
         inkscape:connector-curvature="0"
         id="path3336"
         d="m 299.68471,457.60581 -0.82031,-52.76993 18.43205,-18.99297 54.96509,-15.7235 26.44867,10.59018 21.64895,27.48347 -19.84152,47.79844 -37.92348,17.64892 -37.9889,4.22307 z"
         inkscape:transform-center-y="1.4552298"
         inkscape:transform-center-x="-15.116411"
         style="fill:url(#linearGradient3361);fill-opacity:1;fill-rule:nonzero;stroke:#000000;stroke-width:6;stroke-miterlimit:4;stroke-opacity:1;stroke-dasharray:none" />
      <path
         inkscape:connector-curvature="0"
         id="path4139"
         d="m 416.32143,408.07649 -11.42857,2.14286 -17.14286,-19.28572 -12.14286,-5 -2.85714,-14.28571 -2.85714,15 -40.71429,12.85714 -11.42857,-12.14286 6.42857,12.85715 -6.42857,9.28571 -6.42857,0 5.71428,2.85714 -2.85714,36.42858 16.42857,13.57142 27.14286,-2.85714 32.85714,-15 14.28572,-30 z"
         style="fill:url(#linearGradient3358);fill-opacity:1;fill-rule:evenodd;stroke:#000000;stroke-width:2;stroke-linecap:butt;stroke-linejoin:miter;stroke-miterlimit:4;stroke-opacity:1;stroke-dasharray:none" />
      <path
         inkscape:connector-curvature="0"
         id="path4143"
         d="m 319.89286,411.64792 7.14285,-8.57143 46.42858,-14.28571 11.42857,4.28571 17.14285,18.57143 -13.57142,29.28571 -30,12.85715 -25.71429,4.28571 -15,-10.71429 z"
         style="fill:url(#linearGradient3355);fill-opacity:1;fill-rule:evenodd;stroke:#000000;stroke-width:2;stroke-linecap:butt;stroke-linejoin:miter;stroke-miterlimit:4;stroke-opacity:1;stroke-dasharray:none" />
      <g
         style="stroke:#000000;stroke-opacity:1;stroke-width:2.46413222;stroke-miterlimit:4;stroke-dasharray:none"
         transform="matrix(0.19867126,0,0,0.21140717,339.22687,401.52851)"
         id="g4291">
        <g
           style="fill-rule:evenodd;stroke:#000000;stroke-opacity:1;stroke-width:4.4998615;stroke-miterlimit:4;stroke-dasharray:none"
           id="g2841"
           transform="matrix(0.44779,0.33019,-0.37875,0.39038,101.02,-73.555)">
          <path
             style="stroke:#000000;stroke-width:4.4998615;stroke-opacity:1;stroke-miterlimit:4;stroke-dasharray:none"
             inkscape:connector-curvature="0"
             id="path913"
             d="m 185.21,64.144 11.22,284.07 54.17,-1.06 10.76,-289.48 -39.05,-55.831 -37.1,62.305 z" />
          <path
             style="fill:url(#linearGradient1462);stroke:#000000;stroke-opacity:1;stroke-width:4.4998615;stroke-miterlimit:4;stroke-dasharray:none"
             inkscape:connector-curvature="0"
             id="path1556"
             d="m 186.82,62.143 11.789,283.65 h 25.845 l -1.14,-341.4 -36.5,57.753 z" />
          <path
             style="stroke:#000000;stroke-width:4.4998615;stroke-opacity:1;stroke-miterlimit:4;stroke-dasharray:none"
             inkscape:connector-curvature="0"
             id="path2830"
             d="m 194.13,463.61 6.9886,22.985 44.618,-0.45867 5.5992,-21.284 -57.206,-1.2432 z" />
          <path
             style="fill:url(#linearGradient1464);stroke:#000000;stroke-opacity:1;stroke-width:4.4998615;stroke-miterlimit:4;stroke-dasharray:none"
             inkscape:connector-curvature="0"
             id="path1553"
             d="m 195.21,465.05 7.2547,18.91 41.261,0.52529 7.2546,-18.91 -55.77,-0.52528 z" />
          <path
             style="stroke:#000000;stroke-width:4.4998615;stroke-opacity:1;stroke-miterlimit:4;stroke-dasharray:none"
             inkscape:connector-curvature="0"
             id="path2832"
             d="m 197.7,347.22 1.487,27.032 -1.6019,3 -0.38473,4.3847 2.4976,1.9399 0.34619,7.1753 -2.1153,3.2188 0.0962,4.2886 2.2691,2.0649 0.75973,7.584 h -0.0312 l -2.5986,2.6104 0.19237,4.5458 2.75,2 -0.1875,6.7812 -2.3101,3.476 -0.0962,3.6802 2.75,2 0.625,6.3438 -2.5962,2.7066 -0.19237,4.7695 3.0386,1.7114 0.0937,-0.0312 0.0312,1.0312 15.969,0.28125 -15.062,5.875 -2.4062,3.1875 v 3.9688 l 2.75,2 37.75,-14.594 3.5938,0.0625 0.0625,-1.625 2.6587,-2.584 -0.0962,-4.3535 -1.6729,-2.2188 -0.29585,-8.2812 2.7934,-2.5288 -0.48092,-4.0962 -1.7114,-2.1611 -0.0386,-6.9014 3.0649,-2.8965 0.38474,-4.1611 -2.8872,-2.5986 0.48092,-6.399 2.4253,-3.5386 v -3.7764 l -2.4062,-2.5986 0.50973,-7.5264 2.2403,-3.2236 v -3.9688 l -1.8316,-2.3125 -0.19967,-7.6875 2.7188,-3.1562 v -3.9688 l -2.375,-2.3438 0.28125,-8.2812 -51.041,0.0935 z" />
          <path
             style="fill:#303030;stroke:#000000;stroke-opacity:1;stroke-width:4.4998615;stroke-miterlimit:4;stroke-dasharray:none"
             inkscape:connector-curvature="0"
             id="path1545"
             d="m 198.84,346.6 3.6273,103.2 42.621,0.79384 3.6273,-103.2 -49.876,-0.79384 z" />
          <path
             style="fill:#000090;stroke:#000000;stroke-width:4.4998615;stroke-opacity:1;stroke-miterlimit:4;stroke-dasharray:none"
             inkscape:connector-curvature="0"
             id="path2206"
             d="m 200.29,383.5 47.764,-18.312 2.749,-3.1847 v -3.9809 l -2.4054,-2.3885 -48.451,18.71 -2.4054,3.1847 v 3.9809 l 2.749,1.9905 z" />
          <path
             style="fill:#000090;stroke:#000000;stroke-width:4.4998615;stroke-opacity:1;stroke-miterlimit:4;stroke-dasharray:none"
             inkscape:connector-curvature="0"
             id="path2208"
             d="m 203.73,465.11 41.235,-15.924 2.749,-3.1847 v -3.9809 l -2.4054,-2.3885 -41.922,16.322 -2.4054,3.1847 v 3.9809 l 2.749,1.9904 z" />
          <path
             style="stroke:#000000;stroke-width:4.4998615;stroke-opacity:1;stroke-miterlimit:4;stroke-dasharray:none"
             inkscape:connector-curvature="0"
             id="path1550"
             d="m 170.79,446.96 4.6578,26.044 94.915,-0.7712 2.9094,-23.857 -102.48,-1.4163 z" />
          <path
             style="fill:#000090;stroke:#000000;stroke-width:4.4998615;stroke-opacity:1;stroke-miterlimit:4;stroke-dasharray:none"
             inkscape:connector-curvature="0"
             id="path2207"
             d="m 202.35,448.79 42.953,-16.72 2.749,-3.1847 v -3.9809 l -2.4054,-2.3886 -43.64,17.118 -2.4054,3.1847 v 3.9809 l 2.749,1.9904 z" />
          <path
             style="fill:#000090;stroke:#000000;stroke-width:4.4998615;stroke-opacity:1;stroke-miterlimit:4;stroke-dasharray:none"
             inkscape:connector-curvature="0"
             id="path2203"
             d="m 201.49,433.26 45.015,-17.516 2.749,-3.1847 v -3.9809 l -2.4054,-2.3885 -45.702,17.914 -2.4054,3.1847 v 3.9809 l 2.749,1.9904 z" />
          <path
             style="fill:#000090;stroke:#000000;stroke-width:4.4998615;stroke-opacity:1;stroke-miterlimit:4;stroke-dasharray:none"
             inkscape:connector-curvature="0"
             id="path2204"
             d="m 201.32,417.34 45.702,-17.914 2.749,-3.1847 v -3.9809 l -2.4054,-2.3885 -46.389,18.312 -2.4054,3.1847 v 3.9809 l 2.749,1.9904 z" />
          <path
             style="fill:#000090;stroke:#000000;stroke-width:4.4998615;stroke-opacity:1;stroke-miterlimit:4;stroke-dasharray:none"
             inkscape:connector-curvature="0"
             id="path2205"
             d="m 200.63,400.22 46.733,-17.914 2.749,-3.1847 v -3.9809 l -2.4054,-2.3886 -47.42,18.312 -2.4054,3.1847 v 3.9809 l 2.749,1.9904 z" />
          <path
             style="fill:url(#linearGradient1466);stroke:#000000;stroke-opacity:1;stroke-width:4.4998615;stroke-miterlimit:4;stroke-dasharray:none"
             inkscape:connector-curvature="0"
             id="path2193"
             d="m 272.52,449.03 -3.6273,22.062 -46.173,1.0374 -1.7948,-21.882 51.595,-1.2169 z" />
          <path
             style="fill:url(#linearGradient1468);stroke:#000000;stroke-opacity:1;stroke-width:4.4998615;stroke-miterlimit:4;stroke-dasharray:none"
             inkscape:connector-curvature="0"
             id="path2184"
             d="m 260.27,62.143 -11.789,283.65 h -25.845 l 1.1335,-341.41 36.5,57.755 z" />
          <path
             style="fill:url(#linearGradient1470);stroke:#000000;stroke-opacity:1;stroke-width:4.4998615;stroke-miterlimit:4;stroke-dasharray:none"
             inkscape:connector-curvature="0"
             id="path2196"
             d="m 222.6,4.208 -36.5,57.781 11.789,283.65 h 24.031 1.8137 24.031 l 11.79,-283.65 -36.5,-57.782 -0.23,68.287 -0.22,-68.287 z" />
          <path
             style="stroke:#000000;stroke-width:4.4998615;stroke-opacity:1;stroke-miterlimit:4;stroke-dasharray:none"
             inkscape:connector-curvature="0"
             id="path1543"
             d="m 158.28,346.13 1.5318,32.002 62.149,-12.814 62.915,10.527 0.59434,-31.065 -63.055,2.0744 -64.134,-0.72472 z" />
          <path
             style="fill:url(#linearGradient1472);stroke:#000000;stroke-opacity:1;stroke-width:4.4998615;stroke-miterlimit:4;stroke-dasharray:none"
             inkscape:connector-curvature="0"
             id="path2189"
             d="m 284.53,346.86 -0.90684,27.315 -60.989,-9.9452 -0.31602,-17.098 62.212,-0.27151 z" />
          <path
             style="fill:url(#linearGradient1474);stroke:#000000;stroke-opacity:1;stroke-width:4.4998615;stroke-miterlimit:4;stroke-dasharray:none"
             inkscape:connector-curvature="0"
             id="path2187"
             d="m 160.07,347.65 0.90683,27.315 62.08,-10.71 -0.41547,-17.13 -62.571,0.52527 z" />
          <path
             style="fill:url(#linearGradient1476);stroke:#000000;stroke-opacity:1;stroke-width:4.4998615;stroke-miterlimit:4;stroke-dasharray:none"
             inkscape:connector-curvature="0"
             id="path2191"
             d="m 172.77,448.5 3.6273,22.062 47.04,1.6193 -1.9329,-21.96 -48.734,-1.7215 z" />
          <path
             style="stroke:#000000;stroke-opacity:1;stroke-width:4.4998615;stroke-miterlimit:4;stroke-dasharray:none"
             inkscape:connector-curvature="0"
             id="path2195"
             d="m 223,6.375 -1.56,339.62 h 3.75 L 223.62,6.685 223,6.37 z" />
        </g>
        <path
           style="fill-rule:evenodd;stroke:#000000;stroke-width:2.46413222;stroke-opacity:1;stroke-miterlimit:4;stroke-dasharray:none"
           inkscape:connector-curvature="0"
           id="path1342"
           d="m 40.645,12.641 102.56,114.6 -24.65,17.47 L 4.105,35.261 0.4389,0.57 40.6499,12.642 z" />
        <path
           style="fill:url(#linearGradient3158);fill-rule:evenodd;stroke:#000000;stroke-opacity:1;stroke-width:2.46413222;stroke-miterlimit:4;stroke-dasharray:none"
           inkscape:connector-curvature="0"
           id="path1344"
           d="m 39.166,12.392 102.15,114.63 -11.57,8.53 L 0.946,1.902 39.162,12.394 z" />
        <path
           style="fill-rule:evenodd;stroke:#000000;stroke-width:2.46413222;stroke-opacity:1;stroke-miterlimit:4;stroke-dasharray:none"
           inkscape:connector-curvature="0"
           id="path1346"
           d="m 187.95,171.53 5.5764,11.281 -20.153,14.554 -10.569,-6.4599 25.146,-19.374 z" />
        <path
           style="fill:url(#linearGradient3154);fill-rule:evenodd;stroke:#000000;stroke-opacity:1;stroke-width:2.46413222;stroke-miterlimit:4;stroke-dasharray:none"
           inkscape:connector-curvature="0"
           id="path1348"
           d="m 188.01,172.45 3.9137,9.7776 -18.277,13.829 -10.411,-4.9868 24.775,-18.62 z" />
        <path
           style="fill-rule:evenodd;stroke:#000000;stroke-width:2.46413222;stroke-opacity:1;stroke-miterlimit:4;stroke-dasharray:none"
           inkscape:connector-curvature="0"
           id="path1350"
           d="m 142.27,127.28 9.5724,11.044 1.8536,0.6422 1.833,1.5847 -0.38363,1.582 2.5627,2.9154 2.1663,0.55809 1.5812,1.7059 -0.23399,1.5554 2.5323,3.2115 0.014,-0.0103 2.1523,0.161 1.6356,1.8381 -0.47393,1.6888 2.6524,2.5854 2.351,0.59422 1.437,1.4049 -0.47392,1.6888 2.1228,2.6829 2.1877,0.19936 1.8926,1.7984 -0.71243,1.6714 -0.0538,0.0188 0.37662,0.41288 -7.0442,5.3826 8.9701,-2.68 2.2848,0.44982 1.5032,1.5493 -0.47392,1.6888 -22.432,6.7676 -1.5856,1.211 -0.64346,-0.61373 -2.1692,-0.13088 -1.6058,-1.7313 -0.0912,-1.4185 -3.0041,-3.3305 -2.2087,-0.0648 -1.3361,-1.7579 -0.0522,-1.4088 -2.5966,-2.7069 -2.4695,-0.11873 -1.7483,-1.4974 0.30862,-1.9678 -2.639,-2.3392 -2.4263,-0.58056 -1.4303,-1.4742 0.0933,-1.809 -3.0789,-2.7699 -2.2241,-0.51872 -1.5032,-1.5493 -0.0557,-1.5075 -2.8223,-3.067 -2.4129,-0.33443 -1.5032,-1.5493 0.17581,-1.6992 -3.2625,-3.14 22.891,-16.817 z" />
        <path
           style="fill:#4f1409;fill-rule:evenodd;stroke:#000000;stroke-opacity:1;stroke-width:2.46413222;stroke-miterlimit:4;stroke-dasharray:none"
           inkscape:connector-curvature="0"
           id="path1352"
           d="m 141.53,127.41 37.463,41.485 -18.785,14.383 -40.712,-39.09 22.033,-16.779 z" />
        <path
           style="fill:#bb0d00;fill-rule:evenodd;stroke:#000000;stroke-width:2.46413222;stroke-opacity:1;stroke-miterlimit:4;stroke-dasharray:none"
           inkscape:connector-curvature="0"
           id="path1354"
           d="m 154.85,142.29 -28.324,8.6226 -2.4372,-0.33556 -1.5078,-1.5541 0.17245,-1.7267 28.783,-8.6941 2.2833,0.44902 1.5078,1.5541 -0.4771,1.6848 z" />
        <path
           style="fill:#bb0d00;fill-rule:evenodd;stroke:#000000;stroke-width:2.46413222;stroke-opacity:1;stroke-miterlimit:4;stroke-dasharray:none"
           inkscape:connector-curvature="0"
           id="path1356"
           d="m 184.22,175.29 -24.496,7.3992 -2.4372,-0.33555 -1.5078,-1.5541 0.17244,-1.7267 24.954,-7.4707 2.2833,0.44902 1.5078,1.5541 -0.47711,1.6847 z" />
        <path
           style="fill-rule:evenodd;stroke:#000000;stroke-width:2.46413222;stroke-opacity:1;stroke-miterlimit:4;stroke-dasharray:none"
           inkscape:connector-curvature="0"
           id="path1358"
           d="m 192.1,157.33 7.7786,11.705 -42.795,31.039 -10.339,-8.3526 45.355,-34.392 z" />
        <path
           style="fill:#bb0d00;fill-rule:evenodd;stroke:#000000;stroke-width:2.46413222;stroke-opacity:1;stroke-miterlimit:4;stroke-dasharray:none"
           inkscape:connector-curvature="0"
           id="path1360"
           d="m 178.66,168.46 -25.567,7.6557 -2.4372,-0.33556 -1.5078,-1.5541 0.17244,-1.7267 26.025,-7.7272 2.2833,0.44902 1.5078,1.5541 -0.47711,1.6847 z" />
        <path
           style="fill:#bb0d00;fill-rule:evenodd;stroke:#000000;stroke-width:2.46413222;stroke-opacity:1;stroke-miterlimit:4;stroke-dasharray:none"
           inkscape:connector-curvature="0"
           id="path1362"
           d="m 173.16,162.12 -26.792,8.0257 -2.4372,-0.33555 -1.5078,-1.5541 0.17245,-1.7267 27.25,-8.0972 2.2833,0.44902 1.5078,1.5541 -0.4771,1.6847 z" />
        <path
           style="fill:#bb0d00;fill-rule:evenodd;stroke:#000000;stroke-width:2.46413222;stroke-opacity:1;stroke-miterlimit:4;stroke-dasharray:none"
           inkscape:connector-curvature="0"
           id="path1364"
           d="m 167.21,155.84 -27.25,8.0972 -2.4372,-0.33556 -1.5078,-1.5541 0.17245,-1.7267 27.709,-8.1687 2.2833,0.44903 1.5078,1.5541 -0.4771,1.6847 z" />
        <path
           style="fill:#bb0d00;fill-rule:evenodd;stroke:#000000;stroke-width:2.46413222;stroke-opacity:1;stroke-miterlimit:4;stroke-dasharray:none"
           inkscape:connector-curvature="0"
           id="path1366"
           d="m 161.03,148.93 -27.712,8.4376 -2.4372,-0.33556 -1.5078,-1.5541 0.17244,-1.7267 28.17,-8.5091 2.2833,0.44902 1.5078,1.5541 -0.4771,1.6847 z" />
        <path
           style="fill:url(#linearGradient3142);fill-rule:evenodd;stroke:#000000;stroke-opacity:1;stroke-width:2.46413222;stroke-miterlimit:4;stroke-dasharray:none"
           inkscape:connector-curvature="0"
           id="path1368"
           d="m 147.33,191.72 9.9803,7.4148 21.069,-14.841 -7.4843,-9.1351 -23.565,16.561 z" />
        <path
           style="fill:url(#linearGradient3139);fill-rule:evenodd;stroke:#000000;stroke-opacity:1;stroke-width:2.46413222;stroke-miterlimit:4;stroke-dasharray:none"
           inkscape:connector-curvature="0"
           id="path1370"
           d="m 6.2742,36.646 112.72,106.84 11.57,-8.54 -129.82,-132.9 5.5342,34.596 z" />
        <path
           style="fill:url(#linearGradient3136);fill-rule:evenodd;stroke:#000000;stroke-opacity:1;stroke-width:2.46413222;stroke-miterlimit:4;stroke-dasharray:none"
           inkscape:connector-curvature="0"
           id="path1372"
           d="m 1.2032,1.5879 38.229,10.505 102.16,114.63 -10.761,7.9349 -0.81215,0.59886 -10.761,7.9349 -112.72,-106.84 -5.5399,-34.612 25.965,26.583 -25.762,-26.733 z" />
        <path
           style="fill-rule:evenodd;stroke:#000000;stroke-width:2.46413222;stroke-opacity:1;stroke-miterlimit:4;stroke-dasharray:none"
           inkscape:connector-curvature="0"
           id="path1374"
           d="m 159.51,113.83 11.435,12.999 -32.683,15.519 -24.186,24.883 -12.032,-11.931 29.022,-20.011 28.444,-21.46 z" />
        <path
           style="fill:url(#linearGradient3132);fill-rule:evenodd;stroke:#000000;stroke-opacity:1;stroke-width:2.46413222;stroke-miterlimit:4;stroke-dasharray:none"
           inkscape:connector-curvature="0"
           id="path1376"
           d="m 103.25,155.8 10.752,10.364 23.544,-24.021 -6.3344,-6.7791 -27.961,20.436 z" />
        <path
           style="fill:url(#linearGradient3129);fill-rule:evenodd;stroke:#000000;stroke-opacity:1;stroke-width:2.46413222;stroke-miterlimit:4;stroke-dasharray:none"
           inkscape:connector-curvature="0"
           id="path1378"
           d="m 159.28,115.01 9.9395,10.963 -31.855,16.318 -6.3021,-6.8245 28.218,-20.456 z" />
        <path
           style="fill:url(#linearGradient3126);fill-rule:evenodd;stroke:#000000;stroke-opacity:1;stroke-width:2.46413222;stroke-miterlimit:4;stroke-dasharray:none"
           inkscape:connector-curvature="0"
           id="path1380"
           d="m 191.8,158.58 6.7317,9.8103 -20.451,16.164 -7.4518,-9.2109 21.171,-16.764 z" />
        <path
           style="fill-rule:evenodd;stroke:#000000;stroke-opacity:1;stroke-width:2.46413222;stroke-miterlimit:4;stroke-dasharray:none"
           inkscape:connector-curvature="0"
           id="path1382"
           d="m 1.8432,2.5671 129.34,132.06 -1.68,1.24 L 1.6832,2.8971 1.8464,2.5642 z" />
      </g>
    </g>
  </g>
</svg>
